<?xml version="1.0" standalone="no"?>
<!DOCTYPE svg PUBLIC "-//W3C//DTD SVG 20010904//EN"
 "http://www.w3.org/TR/2001/REC-SVG-20010904/DTD/svg10.dtd">
<svg version="1.0" xmlns="http://www.w3.org/2000/svg"
 width="400.000000pt" height="400.000000pt" viewBox="0 0 400.000000 400.000000"
 preserveAspectRatio="xMidYMid meet">
<metadata>
Created by potrace 1.11, written by Peter Selinger 2001-2013
</metadata>
<g transform="translate(0.000000,400.000000) scale(0.100000,-0.100000)"
fill="#000000" stroke="none">
<path d="M1868 3731 c-189 -61 -328 -250 -328 -445 1 -210 148 -397 357 -451
183 -48 390 34 493 195 95 148 94 362 -2 513 -59 93 -171 171 -279 196 -68 16
-178 12 -241 -8z"/>
<path d="M603 3124 c1 -1 49 -33 107 -72 400 -268 708 -658 951 -1205 l58
-130 76 154 c43 85 97 188 121 230 55 95 59 152 17 214 -47 70 -189 238 -260
306 -230 223 -535 394 -826 464 -83 20 -253 47 -244 39z"/>
<path d="M3355 3103 c-88 -19 -259 -73 -350 -110 -305 -123 -575 -334 -780
-608 -124 -167 -160 -232 -405 -735 -124 -256 -255 -517 -289 -580 -216 -394
-469 -624 -826 -749 -49 -18 -103 -41 -120 -52 l-30 -21 107 6 c484 26 894
197 1163 488 179 193 290 387 496 871 245 573 403 836 669 1111 129 132 233
220 363 304 48 31 87 62 87 69 0 13 -41 16 -85 6z"/>
</g>
</svg>
